<?xml version="1.0" standalone="no"?>
<!DOCTYPE svg PUBLIC "-//W3C//DTD SVG 20010904//EN"
 "http://www.w3.org/TR/2001/REC-SVG-20010904/DTD/svg10.dtd">
<svg version="1.0" xmlns="http://www.w3.org/2000/svg"
 width="300.000000pt" height="300.000000pt" viewBox="0 0 300.000000 300.000000"
 preserveAspectRatio="xMidYMid meet">
<metadata>
Created by potrace 1.11, written by Peter Selinger 2001-2013
</metadata>
<g transform="translate(0.000000,300.000000) scale(0.100000,-0.100000)"
fill="#000000" stroke="none">
<path d="M1635 2992 c-114 -25 -196 -70 -287 -159 l-36 -36 -78 29 c-125 45
-267 39 -406 -19 -16 -7 -28 -15 -28 -19 0 -5 -6 -8 -13 -8 -21 0 -89 -58
-147 -126 -61 -70 -103 -176 -114 -288 -6 -56 -6 -55 -35 -61 -62 -12 -192
-105 -251 -181 -85 -108 -128 -292 -99 -424 10 -48 49 -152 59 -160 3 -3 16
-21 28 -41 38 -62 128 -138 210 -177 83 -40 83 -40 82 -142 0 -51 60 -193 107
-250 31 -39 87 -91 116 -108 15 -9 27 -20 27 -25 0 -4 5 -5 10 -2 5 3 10 1 10
-4 0 -6 3 -10 8 -9 4 1 21 -5 38 -15 17 -9 42 -18 55 -21 13 -3 35 -8 49 -11
73 -18 177 -11 285 18 21 6 91 41 117 59 l27 19 62 -46 c56 -41 67 -47 85 -44
4 0 10 -4 14 -11 4 -6 22 -14 41 -17 19 -3 36 -8 39 -12 9 -12 165 -18 215 -8
52 11 120 30 125 36 3 3 23 15 44 26 22 11 59 36 84 56 49 41 133 149 126 161
-6 9 9 12 41 9 35 -3 179 -2 195 2 204 48 347 173 411 358 27 78 32 207 12
292 -13 58 -64 168 -90 195 -17 18 -17 28 9 97 17 47 22 81 22 155 -1 128 -14
183 -71 280 -58 102 -200 218 -285 234 -15 2 -32 8 -38 11 -10 6 -68 14 -135
19 -26 2 -34 10 -60 64 -36 74 -57 103 -109 155 -97 97 -219 148 -361 151 -49
2 -99 1 -110 -2z"/>
<path d="M2190 760 c0 -4 -11 -7 -25 -5 -14 1 -25 -2 -25 -8 0 -6 -3 -7 -6 -4
-7 7 -58 -25 -87 -55 -52 -53 -68 -162 -35 -238 59 -133 243 -168 352 -66 15
13 26 28 26 35 0 6 4 11 10 11 14 0 32 77 29 129 -5 82 -73 171 -147 190 -61
16 -92 20 -92 11z"/>
<path d="M2363 289 c-39 -25 -76 -100 -70 -143 7 -44 18 -76 27 -76 5 0 11 -8
14 -18 14 -44 135 -61 193 -27 99 58 97 210 -4 266 -41 23 -121 22 -160 -2z"/>
</g>
</svg>
